<svg width="248" height="139" viewBox="0 0 248 139" fill="none" xmlns="http://www.w3.org/2000/svg">
  <path d="M45.432 136.154C47.302 136.154 48.413 135.021 48.413 133.69C48.413 132.524 47.764 131.886 46.785 131.479L45.718 131.039C45.025 130.764 44.442 130.544 44.442 129.961C44.442 129.433 44.893 129.114 45.608 129.114C46.279 129.114 46.818 129.356 47.346 129.785L48.16 128.762C47.5 128.091 46.554 127.717 45.608 127.717C43.969 127.717 42.792 128.74 42.792 130.071C42.792 131.248 43.628 131.919 44.442 132.249L45.531 132.711C46.257 133.019 46.752 133.217 46.752 133.822C46.752 134.383 46.312 134.746 45.465 134.746C44.75 134.746 43.969 134.394 43.397 133.855L42.462 134.977C43.254 135.736 44.332 136.154 45.432 136.154ZM53.4953 136H55.1233V132.48H58.2033V136H59.8203V127.86H58.2033V131.072H55.1233V127.86H53.4953V136ZM64.4055 136H66.0555L67.2215 131.765C67.4635 130.918 67.6945 129.983 67.9145 129.103H67.9585C68.1895 129.972 68.4205 130.918 68.6625 131.765L69.8285 136H71.5335L68.9265 127.86H67.0125L64.4055 136ZM66.0225 133.91H69.8945V132.656H66.0225V133.91ZM76.1273 136H77.7553V132.931H78.9543C80.6593 132.931 82.0123 132.139 82.0123 130.324C82.0123 128.454 80.6593 127.86 78.9543 127.86H76.1273V136ZM77.7553 131.644V129.158H78.8003C79.8563 129.158 80.4283 129.455 80.4283 130.324C80.4283 131.193 79.8563 131.644 78.8003 131.644H77.7553ZM80.5493 136H82.3643L79.7903 131.49L78.6573 132.513L80.5493 136ZM87.2554 136H92.3704V134.636H88.8834V132.469H91.7324V131.094H88.8834V129.213H92.2494V127.86H87.2554V136ZM103.775 136H108.89V134.636H105.403V132.469H108.252V131.094H105.403V129.213H108.769V127.86H103.775V136ZM115.603 136H117.539L120.036 127.86H118.375L117.319 131.82C117.077 132.733 116.901 133.536 116.637 134.46H116.582C116.329 133.536 116.142 132.733 115.889 131.82L114.822 127.86H113.106L115.603 136ZM124.613 136H129.728V134.636H126.241V132.469H129.09V131.094H126.241V129.213H129.607V127.86H124.613V136ZM135.011 136H136.639V132.931H137.838C139.543 132.931 140.896 132.139 140.896 130.324C140.896 128.454 139.543 127.86 137.838 127.86H135.011V136ZM136.639 131.644V129.158H137.684C138.74 129.158 139.312 129.455 139.312 130.324C139.312 131.193 138.74 131.644 137.684 131.644H136.639ZM139.433 136H141.248L138.674 131.49L137.541 132.513L139.433 136ZM147.31 136H148.927V133.03L151.38 127.86H149.686L148.883 129.851C148.641 130.456 148.399 131.028 148.146 131.655H148.102C147.86 131.028 147.64 130.456 147.398 129.851L146.584 127.86H144.857L147.31 133.03V136ZM157.294 136H158.922V129.213H161.221V127.86H154.995V129.213H157.294V136ZM166.182 136H167.81V132.48H170.89V136H172.507V127.86H170.89V131.072H167.81V127.86H166.182V136ZM178.137 136H179.765V127.86H178.137V136ZM185.398 136H186.938V132.744C186.938 131.798 186.806 130.775 186.729 129.906H186.784L187.609 131.644L189.963 136H191.624V127.86H190.073V131.105C190.073 132.029 190.205 133.118 190.293 133.965H190.238L189.413 132.205L187.048 127.86H185.398V136ZM200.765 136.154C201.887 136.154 202.855 135.725 203.405 135.175V131.512H200.501V132.843H201.953V134.449C201.722 134.636 201.326 134.746 200.93 134.746C199.335 134.746 198.521 133.69 198.521 131.908C198.521 130.17 199.456 129.114 200.82 129.114C201.546 129.114 202.008 129.411 202.415 129.796L203.273 128.751C202.745 128.223 201.931 127.717 200.765 127.717C198.598 127.717 196.86 129.279 196.86 131.963C196.86 134.68 198.554 136.154 200.765 136.154Z" fill="#63A8DA"/>
  <path d="M4.732 112H12.012V96.608C12.012 92.136 11.388 87.3 11.024 83.192H11.284L15.184 91.408L26.312 112H34.164V73.52H26.832V88.86C26.832 93.228 27.456 98.376 27.872 102.38H27.612L23.712 94.06L12.532 73.52H4.732V112Z" fill="#63A8DA"/>
  <path d="M60.1985 112.728C65.5025 112.728 70.0785 110.7 72.6785 108.1V90.784H58.9505V97.076H65.8145V104.668C64.7225 105.552 62.8505 106.072 60.9785 106.072C53.4385 106.072 49.5905 101.08 49.5905 92.656C49.5905 84.44 54.0105 79.448 60.4585 79.448C63.8905 79.448 66.0745 80.852 67.9985 82.672L72.0545 77.732C69.5585 75.236 65.7105 72.844 60.1985 72.844C49.9545 72.844 41.7385 80.228 41.7385 92.916C41.7385 105.76 49.7465 112.728 60.1985 112.728ZM80.9172 112H105.097V105.552H88.6132V95.308H102.081V88.808H88.6132V79.916H104.525V73.52H80.9172V112ZM120.535 112H128.231V79.916H139.099V73.52H109.667V79.916H120.535V112ZM145.372 112H153.068V95.36H167.628V112H175.272V73.52H167.628V88.704H153.068V73.52H145.372V112ZM184.709 112H208.889V105.552H192.405V95.308H205.873V88.808H192.405V79.916H208.317V73.52H184.709V112ZM216.682 112H224.378V97.492H230.046C238.106 97.492 244.502 93.748 244.502 85.168C244.502 76.328 238.106 73.52 230.046 73.52H216.682V112ZM224.378 91.408V79.656H229.318C234.31 79.656 237.014 81.06 237.014 85.168C237.014 89.276 234.31 91.408 229.318 91.408H224.378ZM237.586 112H246.166L233.998 90.68L228.642 95.516L237.586 112Z" fill="#333333"/>
  <path d="M141.603 56.7C135.69 56.7 128.724 52.488 120.786 44.145V46.494C120.786 49.491 119.571 56.7 108.636 56.7C97.215 56.7 96 49.491 96 46.494V16.929C96 8.505 95.919 0 107.259 0C113.577 0 121.515 6.237 127.914 12.879V10.206C127.914 6.399 129.534 0 140.388 0C148.164 0 152.7 4.05 152.7 10.53V42.363C152.7 50.22 151.89 56.7 141.603 56.7ZM120.786 25.272V35.802C129.21 45.846 136.419 51.111 141.603 51.111C145.248 51.111 145.896 50.139 146.139 49.734C147.03 48.357 147.111 45.36 147.111 42.363V10.53C147.111 9.315 147.111 5.589 140.388 5.589C133.584 5.589 133.503 8.505 133.503 10.206V19.035C136.5 22.518 138.687 25.515 139.902 27.216C142.17 30.375 142.575 33.777 141.198 36.369C138.201 42.444 127.914 41.229 127.914 31.428V21.141C119.166 11.34 111.795 5.589 107.259 5.589C102.399 5.589 101.589 6.561 101.589 16.929V46.494C101.589 48.114 101.589 51.111 108.636 51.111C115.116 51.111 115.197 48.114 115.197 46.494V37.827C112.2 34.263 110.013 31.104 108.798 29.565C106.449 26.244 106.044 23.085 107.421 20.169C110.661 14.094 120.786 15.228 120.786 25.272ZM133.503 27.945C133.503 30.78 133.098 34.425 135.123 34.425C135.69 34.425 136.095 34.182 136.257 33.777C137.148 32.238 134.799 29.646 133.503 27.945ZM112.443 22.761C111.552 24.543 113.901 26.892 115.197 28.836V25.272C115.197 21.222 113.091 21.708 112.443 22.761Z" fill="#63A8DA"/>
</svg>
