<svg width="current" height="curren" viewBox="0 0 248 140" fill="none" xmlns="http://www.w3.org/2000/svg">
  <path d="M30.72 127.755V128.265C30.72 129.765 29.745 131.25 27.495 131.85L28.41 133.41C31.065 132.69 32.325 130.62 32.325 128.265V127.755H30.72ZM31.095 127.755V128.265C31.095 130.5 32.34 132.48 35.025 133.155L35.91 131.625C33.675 131.055 32.715 129.645 32.715 128.265V127.755H31.095ZM27.99 126.78V128.34H35.445V126.78H27.99ZM30.72 125.4V127.5H32.715V125.4H30.72ZM36.54 125.445V133.35H38.535V125.445H36.54ZM37.98 128.55V130.185H40.38V128.55H37.98ZM33 134.61V134.94C33 136.14 31.71 137.43 28.815 137.775L29.535 139.29C32.88 138.855 34.68 137.1 34.68 134.94V134.61H33ZM33.435 134.61V134.94C33.435 137.04 35.235 138.885 38.595 139.32L39.3 137.805C36.45 137.43 35.13 136.095 35.13 134.94V134.61H33.435ZM29.4 133.95V135.525H38.715V133.95H29.4ZM52.6338 126.135C49.7088 126.135 47.4438 127.74 47.4438 130.155C47.4438 132.585 49.7088 134.175 52.6338 134.175C55.5588 134.175 57.8238 132.585 57.8238 130.155C57.8238 127.74 55.5588 126.135 52.6338 126.135ZM52.6338 127.755C54.5238 127.755 55.8738 128.655 55.8738 130.155C55.8738 131.64 54.5238 132.54 52.6338 132.54C50.7438 132.54 49.3938 131.64 49.3938 130.155C49.3938 128.655 50.7438 127.755 52.6338 127.755ZM46.3638 136.035V137.67H58.9338V136.035H46.3638ZM68.4877 126.51V128.535C68.4877 131.235 67.3477 133.905 64.9327 134.955L66.1177 136.605C68.8777 135.33 70.1077 132.105 70.1077 128.535V126.51H68.4877ZM68.8777 126.51V128.535C68.8777 131.955 70.1077 135.045 72.7927 136.275L73.9627 134.67C71.5927 133.65 70.4977 131.1 70.4977 128.535V126.51H68.8777ZM74.6227 125.43V139.365H76.6327V125.43H74.6227ZM85.4065 129.195V130.77H95.0365V129.195H85.4065ZM83.8465 132.21V133.8H96.4315V132.21H83.8465ZM85.4065 125.94V129.975H87.3865V125.94H85.4065ZM85.2715 137.445V139.035H95.1115V137.445H85.2715ZM85.2715 134.91V137.865H87.2665V134.91H85.2715ZM113.989 126.195V127.425C113.989 129.315 113.044 131.175 110.719 131.955L111.784 133.53C114.424 132.615 115.624 130.185 115.624 127.425V126.195H113.989ZM114.394 126.195V127.62C114.394 130.125 115.579 132.285 118.084 133.125L119.119 131.58C116.944 130.905 116.014 129.285 116.014 127.62V126.195H114.394ZM119.884 125.445V133.65H121.879V125.445H119.884ZM121.324 128.655V130.305H123.724V128.655H121.324ZM117.349 133.965C114.454 133.965 112.639 134.97 112.639 136.65C112.639 138.345 114.454 139.335 117.349 139.335C120.229 139.335 122.044 138.345 122.044 136.65C122.044 134.97 120.229 133.965 117.349 133.965ZM117.349 135.51C119.119 135.51 120.064 135.885 120.064 136.65C120.064 137.43 119.119 137.79 117.349 137.79C115.579 137.79 114.619 137.43 114.619 136.65C114.619 135.885 115.579 135.51 117.349 135.51ZM134.973 133.08V135.195H136.968V133.08H134.973ZM129.693 131.94V133.515H142.248V131.94H129.693ZM130.788 125.82V127.41H141.138V125.82H130.788ZM130.893 129.495V131.085H141.033V129.495H130.893ZM132.558 126.405V130.53H134.553V126.405H132.558ZM137.373 126.405V130.53H139.368V126.405H137.373ZM131.148 134.67V139.185H140.748V134.67H131.148ZM138.798 136.215V137.61H133.113V136.215H138.798ZM157.966 125.43V139.365H159.976V125.43H157.966ZM152.491 126.405C150.391 126.405 148.846 128.325 148.846 131.355C148.846 134.415 150.391 136.335 152.491 136.335C154.591 136.335 156.136 134.415 156.136 131.355C156.136 128.325 154.591 126.405 152.491 126.405ZM152.491 128.22C153.526 128.22 154.216 129.315 154.216 131.355C154.216 133.425 153.526 134.535 152.491 134.535C151.456 134.535 150.751 133.425 150.751 131.355C150.751 129.315 151.456 128.22 152.491 128.22ZM177.069 133.575V139.185H182.139V133.575H180.294V134.94H178.914V133.575H177.069ZM178.914 136.38H180.294V137.685H178.914V136.38ZM184.284 133.47V134.505C184.284 135.81 183.609 137.145 181.944 137.835L182.919 139.32C184.974 138.525 185.799 136.545 185.799 134.505V133.47H184.284ZM184.749 133.47V134.505C184.749 136.695 185.529 138.57 187.629 139.32L188.619 137.835C186.924 137.265 186.264 135.945 186.264 134.505V133.47H184.749ZM182.559 128.415V130.035H186.039V128.415H182.559ZM179.379 125.97C177.279 125.97 175.704 127.32 175.704 129.24C175.704 131.16 177.279 132.525 179.379 132.525C181.464 132.525 183.039 131.16 183.039 129.24C183.039 127.32 181.464 125.97 179.379 125.97ZM179.379 127.605C180.399 127.605 181.134 128.22 181.134 129.24C181.134 130.26 180.399 130.89 179.379 130.89C178.359 130.89 177.609 130.26 177.609 129.24C177.609 128.22 178.359 127.605 179.379 127.605ZM185.169 125.445V132.795H187.164V125.445H185.169ZM198.097 126.405C196.013 126.405 194.513 128.325 194.513 131.355C194.513 134.415 196.013 136.335 198.097 136.335C200.168 136.335 201.683 134.415 201.683 131.355C201.683 128.325 200.168 126.405 198.097 126.405ZM198.097 128.22C199.118 128.22 199.778 129.315 199.778 131.355C199.778 133.425 199.118 134.535 198.097 134.535C197.093 134.535 196.418 133.425 196.418 131.355C196.418 129.315 197.093 128.22 198.097 128.22ZM203.963 125.43V139.365H205.943V125.43H203.963ZM201.098 130.44V132.045H204.803V130.44H201.098ZM215.811 132.495V136.395H217.791V132.495H215.811ZM220.851 132.495V136.395H222.846V132.495H220.851ZM213.051 136.11V137.73H225.621V136.11H213.051ZM219.321 126.12C216.321 126.12 214.131 127.59 214.131 129.855C214.131 132.12 216.321 133.575 219.321 133.575C222.306 133.575 224.511 132.12 224.511 129.855C224.511 127.59 222.306 126.12 219.321 126.12ZM219.321 127.68C221.256 127.68 222.546 128.475 222.546 129.855C222.546 131.22 221.256 132.03 219.321 132.03C217.386 132.03 216.096 131.22 216.096 129.855C216.096 128.475 217.386 127.68 219.321 127.68Z" fill="#999999"/>
  <path d="M4.732 112H12.012V96.608C12.012 92.136 11.388 87.3 11.024 83.192H11.284L15.184 91.408L26.312 112H34.164V73.52H26.832V88.86C26.832 93.228 27.456 98.376 27.872 102.38H27.612L23.712 94.06L12.532 73.52H4.732V112ZM60.1985 112.728C65.5025 112.728 70.0785 110.7 72.6785 108.1V90.784H58.9505V97.076H65.8145V104.668C64.7225 105.552 62.8505 106.072 60.9785 106.072C53.4385 106.072 49.5905 101.08 49.5905 92.656C49.5905 84.44 54.0105 79.448 60.4585 79.448C63.8905 79.448 66.0745 80.852 67.9985 82.672L72.0545 77.732C69.5585 75.236 65.7105 72.844 60.1985 72.844C49.9545 72.844 41.7385 80.228 41.7385 92.916C41.7385 105.76 49.7465 112.728 60.1985 112.728ZM80.9172 112H105.097V105.552H88.6132V95.308H102.081V88.808H88.6132V79.916H104.525V73.52H80.9172V112ZM120.535 112H128.231V79.916H139.099V73.52H109.667V79.916H120.535V112ZM145.372 112H153.068V95.36H167.628V112H175.272V73.52H167.628V88.704H153.068V73.52H145.372V112ZM184.709 112H208.889V105.552H192.405V95.308H205.873V88.808H192.405V79.916H208.317V73.52H184.709V112ZM216.682 112H224.378V97.492H230.046C238.106 97.492 244.502 93.748 244.502 85.168C244.502 76.328 238.106 73.52 230.046 73.52H216.682V112ZM224.378 91.408V79.656H229.318C234.31 79.656 237.014 81.06 237.014 85.168C237.014 89.276 234.31 91.408 229.318 91.408H224.378ZM237.586 112H246.166L233.998 90.68L228.642 95.516L237.586 112Z" fill="#999999"/>
  <path d="M141.603 56.7C135.69 56.7 128.724 52.488 120.786 44.145V46.494C120.786 49.491 119.571 56.7 108.636 56.7C97.215 56.7 96 49.491 96 46.494V16.929C96 8.505 95.919 0 107.259 0C113.577 0 121.515 6.237 127.914 12.879V10.206C127.914 6.399 129.534 0 140.388 0C148.164 0 152.7 4.05 152.7 10.53V42.363C152.7 50.22 151.89 56.7 141.603 56.7ZM120.786 25.272V35.802C129.21 45.846 136.419 51.111 141.603 51.111C145.248 51.111 145.896 50.139 146.139 49.734C147.03 48.357 147.111 45.36 147.111 42.363V10.53C147.111 9.315 147.111 5.589 140.388 5.589C133.584 5.589 133.503 8.505 133.503 10.206V19.035C136.5 22.518 138.687 25.515 139.902 27.216C142.17 30.375 142.575 33.777 141.198 36.369C138.201 42.444 127.914 41.229 127.914 31.428V21.141C119.166 11.34 111.795 5.589 107.259 5.589C102.399 5.589 101.589 6.561 101.589 16.929V46.494C101.589 48.114 101.589 51.111 108.636 51.111C115.116 51.111 115.197 48.114 115.197 46.494V37.827C112.2 34.263 110.013 31.104 108.798 29.565C106.449 26.244 106.044 23.085 107.421 20.169C110.661 14.094 120.786 15.228 120.786 25.272ZM133.503 27.945C133.503 30.78 133.098 34.425 135.123 34.425C135.69 34.425 136.095 34.182 136.257 33.777C137.148 32.238 134.799 29.646 133.503 27.945ZM112.443 22.761C111.552 24.543 113.901 26.892 115.197 28.836V25.272C115.197 21.222 113.091 21.708 112.443 22.761Z" fill="#63A8DA"/>
</svg>
