<svg width="81" height="17" viewBox="0 0 81 17" fill="none" xmlns="http://www.w3.org/2000/svg">
  <path d="M13.5181 17C11.7653 17 9.70037 15.7371 7.34731 13.2357V13.94C7.34731 14.8386 6.98715 17 3.74569 17C0.360167 17 4.76298e-06 14.8386 4.76298e-06 13.94V5.07571C4.76298e-06 2.55 -0.024006 0 3.33751 0C5.21035 0 7.56341 1.87 9.46027 3.86143V3.06C9.46027 1.91857 9.94048 0 13.1579 0C15.463 0 16.8076 1.21429 16.8076 3.15714V12.7014C16.8076 15.0571 16.5675 17 13.5181 17ZM7.34731 7.57714V10.7343C9.84444 13.7457 11.9814 15.3243 13.5181 15.3243C14.5986 15.3243 14.7907 15.0329 14.8627 14.9114C15.1268 14.4986 15.1508 13.6 15.1508 12.7014V3.15714C15.1508 2.79286 15.1508 1.67571 13.1579 1.67571C11.141 1.67571 11.117 2.55 11.117 3.06V5.70714C12.0054 6.75143 12.6537 7.65 13.0139 8.16C13.6862 9.10714 13.8062 10.1271 13.398 10.9043C12.5096 12.7257 9.46027 12.3614 9.46027 9.42286V6.33857C6.8671 3.4 4.68211 1.67571 3.33751 1.67571C1.89686 1.67571 1.65675 1.96714 1.65675 5.07571V13.94C1.65675 14.4257 1.65675 15.3243 3.74569 15.3243C5.66656 15.3243 5.69057 14.4257 5.69057 13.94V11.3414C4.80217 10.2729 4.15388 9.32571 3.79371 8.86429C3.0974 7.86857 2.97735 6.92143 3.38553 6.04714C4.34596 4.22571 7.34731 4.56571 7.34731 7.57714ZM11.117 8.37857C11.117 9.22857 10.997 10.3214 11.5972 10.3214C11.7653 10.3214 11.8854 10.2486 11.9334 10.1271C12.1975 9.66571 11.5012 8.88857 11.117 8.37857ZM4.8742 6.82429C4.61008 7.35857 5.3064 8.06286 5.69057 8.64571V7.57714C5.69057 6.36286 5.06629 6.50857 4.8742 6.82429Z" fill="#63A8DA"/>
  <path d="M26.2285 14.7869C27.7796 14.7869 29.1178 14.187 29.8782 13.418V8.29611H25.8635V10.1572H27.8709V12.4028C27.5515 12.6643 27.0041 12.8181 26.4566 12.8181C24.2516 12.8181 23.1263 11.3415 23.1263 8.84983C23.1263 6.41964 24.4189 4.94307 26.3045 4.94307C27.3082 4.94307 27.9469 5.35835 28.5095 5.89669L29.6957 4.43549C28.9657 3.69721 27.8404 2.98969 26.2285 2.98969C23.2328 2.98969 20.8301 5.17378 20.8301 8.92673C20.8301 12.7258 23.1719 14.7869 26.2285 14.7869Z" fill="#999999"/>
  <path d="M32.325 14.5715H39.3962V12.6643H34.5756V9.63426H38.5142V7.71164H34.5756V5.08149H39.2289V3.18964H32.325V14.5715Z" fill="#999999"/>
  <path d="M43.9482 14.5715H46.1988V5.08149H49.377V3.18964H40.7699V5.08149H43.9482V14.5715Z" fill="#999999"/>
  <path d="M51.2491 14.5715H53.4997V9.64964H57.7576V14.5715H59.993V3.18964H57.7576V7.68088H53.4997V3.18964H51.2491V14.5715Z" fill="#999999"/>
  <path d="M62.7902 14.5715H69.8614V12.6643H65.0408V9.63426H68.9794V7.71164H65.0408V5.08149H69.6941V3.18964H62.7902V14.5715Z" fill="#999999"/>
  <path d="M72.178 14.5715H74.4286V10.2803H76.0861C78.4432 10.2803 80.3136 9.17283 80.3136 6.63497C80.3136 4.02021 78.4432 3.18964 76.0861 3.18964H72.178V14.5715ZM74.4286 8.48069V5.00459H75.8732C77.3331 5.00459 78.1238 5.41988 78.1238 6.63497C78.1238 7.85007 77.3331 8.48069 75.8732 8.48069H74.4286ZM78.2911 14.5715H80.8003L77.2418 8.26535L75.6755 9.69578L78.2911 14.5715Z" fill="#999999"/>
</svg>
