<svg xmlns="http://www.w3.org/2000/svg" width="100" height="21" viewBox="0 0 100 21" fill="none">
  <path d="M16.89 21C14.7 21 12.12 19.44 9.18 16.35V17.22C9.18 18.33 8.73 21 4.68 21C0.450005 21 5.95104e-06 18.33 5.95104e-06 17.22V6.27C5.95104e-06 3.15 -0.029994 0 4.17 0C6.51 0 9.45 2.31 11.82 4.77V3.78C11.82 2.37 12.42 0 16.44 0C19.32 0 21 1.5 21 3.9V15.69C21 18.6 20.7 21 16.89 21ZM9.18 9.36V13.26C12.3 16.98 14.97 18.93 16.89 18.93C18.24 18.93 18.48 18.57 18.57 18.42C18.9 17.91 18.93 16.8 18.93 15.69V3.9C18.93 3.45 18.93 2.07 16.44 2.07C13.92 2.07 13.89 3.15 13.89 3.78V7.05C15 8.34 15.81 9.45 16.26 10.08C17.1 11.25 17.25 12.51 16.74 13.47C15.63 15.72 11.82 15.27 11.82 11.64V7.83C8.58 4.2 5.85 2.07 4.17 2.07C2.37001 2.07 2.07001 2.43 2.07001 6.27V17.22C2.07001 17.82 2.07 18.93 4.68 18.93C7.08 18.93 7.11 17.82 7.11 17.22V14.01C6 12.69 5.19 11.52 4.74 10.95C3.87 9.72 3.72 8.55 4.23 7.47C5.43 5.22 9.18 5.64 9.18 9.36ZM13.89 10.35C13.89 11.4 13.74 12.75 14.49 12.75C14.7 12.75 14.85 12.66 14.91 12.51C15.24 11.94 14.37 10.98 13.89 10.35ZM6.09 8.43C5.76 9.09 6.63 9.96 7.11 10.68V9.36C7.11 7.86 6.33 8.04 6.09 8.43Z" fill="#63A8DA"/>
  <path d="M32.7709 18.2661C34.7089 18.2661 36.3809 17.5251 37.3309 16.5751V10.2481H32.3149V12.5471H34.8229V15.3211C34.4239 15.6441 33.7399 15.8341 33.0559 15.8341C30.3009 15.8341 28.8949 14.0101 28.8949 10.9321C28.8949 7.93012 30.5099 6.10611 32.8659 6.10611C34.1199 6.10611 34.9179 6.61912 35.6209 7.28412L37.1029 5.47911C36.1909 4.56712 34.7849 3.69312 32.7709 3.69312C29.0279 3.69312 26.0259 6.39112 26.0259 11.0271C26.0259 15.7201 28.9519 18.2661 32.7709 18.2661Z" fill="#444444"/>
  <path d="M40.388 18.0001H49.223V15.6441H43.2V11.9011H48.121V9.52612H43.2V6.27711H49.014V3.94012H40.388V18.0001Z" fill="#444444"/>
  <path d="M54.9105 18.0001H57.7225V6.27711H61.6935V3.94012H50.9395V6.27711H54.9105V18.0001Z" fill="#444444"/>
  <path d="M64.0325 18.0001H66.8445V11.9201H72.1645V18.0001H74.9575V3.94012H72.1645V9.48812H66.8445V3.94012H64.0325V18.0001Z" fill="#444444"/>
  <path d="M78.4524 18.0001H87.2874V15.6441H81.2644V11.9011H86.1854V9.52612H81.2644V6.27711H87.0784V3.94012H78.4524V18.0001Z" fill="#444444"/>
  <path d="M90.1818 18.0001H92.9938V12.6991H95.0648C98.0098 12.6991 100.347 11.3311 100.347 8.19611C100.347 4.96611 98.0098 3.94012 95.0648 3.94012H90.1818V18.0001ZM92.9938 10.4761V6.18211H94.7988C96.6228 6.18211 97.6108 6.69511 97.6108 8.19611C97.6108 9.69711 96.6228 10.4761 94.7988 10.4761H92.9938ZM97.8198 18.0001H100.955L96.5088 10.2101L94.5518 11.9771L97.8198 18.0001Z" fill="#444444"/>
</svg>
