<svg xmlns="http://www.w3.org/2000/svg" width="36" height="36" viewBox="0 0 36 36" fill="none">
<path d="M28.9543 36C25.2 36 20.7771 33.3257 15.7371 28.0286V29.52C15.7371 31.4229 14.9657 36 8.02286 36C0.771438 36 1.02018e-05 31.4229 1.02018e-05 29.52V10.7486C1.02018e-05 5.4 -0.0514183 0 7.14858 0C11.16 0 16.2 3.96 20.2629 8.17714V6.48C20.2629 4.06286 21.2914 0 28.1829 0C33.12 0 36 2.57143 36 6.68571V26.8971C36 31.8857 35.4857 36 28.9543 36V36ZM15.7371 16.0457V22.7314C21.0857 29.1086 25.6629 32.4514 28.9543 32.4514C31.2686 32.4514 31.68 31.8343 31.8343 31.5771C32.4 30.7029 32.4514 28.8 32.4514 26.8971V6.68571C32.4514 5.91429 32.4514 3.54857 28.1829 3.54857C23.8629 3.54857 23.8114 5.4 23.8114 6.48V12.0857C25.7143 14.2971 27.1029 16.2 27.8743 17.28C29.3143 19.2857 29.5714 21.4457 28.6971 23.0914C26.7943 26.9486 20.2629 26.1771 20.2629 19.9543V13.4229C14.7086 7.2 10.0286 3.54857 7.14858 3.54857C4.06287 3.54857 3.54858 4.16572 3.54858 10.7486V29.52C3.54858 30.5486 3.54858 32.4514 8.02286 32.4514C12.1371 32.4514 12.1886 30.5486 12.1886 29.52V24.0171C10.2857 21.7543 8.89715 19.7486 8.12572 18.7714C6.63429 16.6629 6.37715 14.6571 7.25144 12.8057C9.30858 8.94857 15.7371 9.66857 15.7371 16.0457V16.0457ZM23.8114 17.7429C23.8114 19.5429 23.5543 21.8571 24.84 21.8571C25.2 21.8571 25.4571 21.7029 25.56 21.4457C26.1257 20.4686 24.6343 18.8229 23.8114 17.7429ZM10.44 14.4514C9.87429 15.5829 11.3657 17.0743 12.1886 18.3086V16.0457C12.1886 13.4743 10.8514 13.7829 10.44 14.4514Z" fill="#63A8DA"/>
</svg>