<svg width="1000" height="1000" viewBox="0 0 156 156" fill="none" xmlns="http://www.w3.org/2000/svg">
<rect width="1000" height="1000" rx="3" fill="white"/>
<path d="M52.1801 86.775C50.4712 86.775 48.4579 85.5437 46.1636 83.1048V83.7914C46.1636 84.6676 45.8125 86.775 42.652 86.775C39.3512 86.775 39 84.6676 39 83.7914V75.1488C39 72.6862 38.9766 70.2 42.2541 70.2C44.0801 70.2 46.3743 72.0232 48.2238 73.9648V73.1835C48.2238 72.0706 48.692 70.2 51.829 70.2C54.0764 70.2 55.3874 71.3839 55.3874 73.2782V82.5838C55.3874 84.8807 55.1533 86.775 52.1801 86.775ZM46.1636 77.5877V80.6659C48.5983 83.602 50.6819 85.1411 52.1801 85.1411C53.2336 85.1411 53.4209 84.857 53.4911 84.7386C53.7486 84.3361 53.7721 83.46 53.7721 82.5838V73.2782C53.7721 72.923 53.7721 71.8338 51.829 71.8338C49.8625 71.8338 49.8391 72.6862 49.8391 73.1835V75.7644C50.7053 76.7826 51.3374 77.6587 51.6885 78.156C52.344 79.0794 52.4611 80.0739 52.0631 80.8316C51.1969 82.6075 48.2238 82.2523 48.2238 79.3872V76.3801C45.6954 73.515 43.5651 71.8338 42.2541 71.8338C40.8494 71.8338 40.6153 72.1179 40.6153 75.1488V83.7914C40.6153 84.265 40.6153 85.1411 42.652 85.1411C44.5249 85.1411 44.5483 84.265 44.5483 83.7914V81.2578C43.6821 80.216 43.05 79.2925 42.6989 78.8426C42.02 77.8718 41.9029 76.9483 42.3009 76.0959C43.2373 74.32 46.1636 74.6515 46.1636 77.5877ZM49.8391 78.3691C49.8391 79.1978 49.722 80.2633 50.3073 80.2633C50.4712 80.2633 50.5882 80.1923 50.635 80.0739C50.8926 79.624 50.2137 78.8663 49.8391 78.3691ZM43.7523 76.8536C43.4948 77.3746 44.1737 78.0612 44.5483 78.6295V77.5877C44.5483 76.4037 43.9396 76.5458 43.7523 76.8536Z" fill="#63A8DA"/>
<path d="M64.573 84.6173C66.0854 84.6173 67.3901 84.0324 68.1314 83.2826V78.2888H64.2172V80.1033H66.1743V82.2928C65.863 82.5477 65.3292 82.6977 64.7954 82.6977C62.6456 82.6977 61.5484 81.2581 61.5484 78.8286C61.5484 76.4592 62.8087 75.0195 64.6472 75.0195C65.6257 75.0195 66.2485 75.4244 66.797 75.9493L67.9535 74.5247C67.2418 73.8048 66.1447 73.115 64.573 73.115C61.6522 73.115 59.3096 75.2445 59.3096 78.9036C59.3096 82.6077 61.5929 84.6173 64.573 84.6173Z" fill="#999999"/>
<path d="M70.5171 84.4073H77.4115V82.5477H72.7114V79.5934H76.5516V77.7189H72.7114V75.1545H77.2484V73.3099H70.5171V84.4073Z" fill="#999999"/>
<path d="M81.8497 84.4073H84.0441V75.1545H87.1428V73.3099H78.7509V75.1545H81.8497V84.4073Z" fill="#999999"/>
<path d="M88.9681 84.4073H91.1624V79.6084H95.3139V84.4073H97.4934V73.3099H95.3139V77.6889H91.1624V73.3099H88.9681V84.4073Z" fill="#999999"/>
<path d="M100.221 84.4073H107.115V82.5477H102.415V79.5934H106.255V77.7189H102.415V75.1545H106.952V73.3099H100.221V84.4073Z" fill="#999999"/>
<path d="M109.374 84.4073H111.568V80.2233H113.184C115.482 80.2233 117.306 79.1436 117.306 76.6691C117.306 74.1198 115.482 73.3099 113.184 73.3099H109.374V84.4073ZM111.568 78.4687V75.0795H112.977C114.4 75.0795 115.171 75.4844 115.171 76.6691C115.171 77.8539 114.4 78.4687 112.977 78.4687H111.568ZM115.334 84.4073H117.78L114.311 78.2588L112.784 79.6534L115.334 84.4073Z" fill="#999999"/>
<rect width="1000" height="1000" rx="3" fill="black" fill-opacity="0.05"/>
</svg>
