<svg width="156" height="156" viewBox="0 0 156 156" fill="none" xmlns="http://www.w3.org/2000/svg">
<rect width="156" height="156" rx="3" fill="white"/>
<rect width="156" height="156" rx="3" fill="black" fill-opacity="0.05"/>
<path fill-rule="evenodd" clip-rule="evenodd" d="M76.2361 71C75.8573 71 75.511 71.214 75.3416 71.5528L74.9472 72.3416C74.439 73.358 73.4002 74 72.2639 74H71C70.4477 74 70 74.4477 70 75V84C70 84.5523 70.4477 85 71 85H85C85.5523 85 86 84.5523 86 84V75C86 74.4477 85.5523 74 85 74H83.7361C82.5998 74 81.561 73.358 81.0528 72.3416L80.6584 71.5528C80.489 71.214 80.1427 71 79.7639 71H76.2361ZM73.5528 70.6584C74.061 69.642 75.0998 69 76.2361 69H79.7639C80.9002 69 81.939 69.642 82.4472 70.6584L82.8416 71.4472C83.011 71.786 83.3573 72 83.7361 72H85C86.6569 72 88 73.3432 88 75V84C88 85.6569 86.6569 87 85 87H71C69.3432 87 68 85.6569 68 84V75C68 73.3432 69.3432 72 71 72H72.2639C72.6427 72 72.989 71.786 73.1584 71.4472L73.5528 70.6584Z" fill="#999999"/>
<path fill-rule="evenodd" clip-rule="evenodd" d="M78 76C76.3431 76 75 77.3431 75 79C75 80.6569 76.3431 82 78 82C79.6569 82 81 80.6569 81 79C81 77.3431 79.6569 76 78 76ZM73 79C73 76.2386 75.2386 74 78 74C80.7614 74 83 76.2386 83 79C83 81.7614 80.7614 84 78 84C75.2386 84 73 81.7614 73 79Z" fill="#999999"/>
</svg>
