<svg width="5" height="18" viewBox="0 0 5 18" fill="none" xmlns="http://www.w3.org/2000/svg">
  <path d="M4.5 9C4.5 9.59674 4.26295 10.169 3.84099 10.591C3.41903 11.0129 2.84674 11.25 2.25 11.25C1.65326 11.25 1.08097 11.0129 0.65901 10.591C0.237053 10.169 0 9.59674 0 9C0 8.40326 0.237053 7.83097 0.65901 7.40901C1.08097 6.98705 1.65326 6.75 2.25 6.75C2.84674 6.75 3.41903 6.98705 3.84099 7.40901C4.26295 7.83097 4.5 8.40326 4.5 9ZM4.5 2.25C4.5 2.84674 4.26295 3.41903 3.84099 3.84099C3.41903 4.26295 2.84674 4.5 2.25 4.5C1.65326 4.5 1.08097 4.26295 0.65901 3.84099C0.237053 3.41903 0 2.84674 0 2.25C0 1.65326 0.237053 1.08097 0.65901 0.65901C1.08097 0.237053 1.65326 0 2.25 0C2.84674 0 3.41903 0.237053 3.84099 0.65901C4.26295 1.08097 4.5 1.65326 4.5 2.25V2.25ZM4.5 15.75C4.5 16.3467 4.26295 16.919 3.84099 17.341C3.41903 17.7629 2.84674 18 2.25 18C1.65326 18 1.08097 17.7629 0.65901 17.341C0.237053 16.919 0 16.3467 0 15.75C0 15.1533 0.237053 14.581 0.65901 14.159C1.08097 13.7371 1.65326 13.5 2.25 13.5C2.84674 13.5 3.41903 13.7371 3.84099 14.159C4.26295 14.581 4.5 15.1533 4.5 15.75Z" fill="#979797"/>
</svg>
