<svg xmlns="http://www.w3.org/2000/svg" width="26" height="26" viewBox="0 0 26 26" fill="none">
<path fill-rule="evenodd" clip-rule="evenodd" d="M13 17.675L12.275 17.015C9.7 14.68 8 13.14 8 11.25C8 9.71 9.21 8.5 10.75 8.5C11.62 8.5 12.455 8.905 13 9.545C13.545 8.905 14.38 8.5 15.25 8.5C16.79 8.5 18 9.71 18 11.25C18 13.14 16.3 14.68 13.725 17.02L13 17.675Z" fill="black" fill-opacity="0.6"/>
<path d="M1 4C1 2.34315 2.34315 1 4 1H22C23.6569 1 25 2.34315 25 4V22C25 23.6569 23.6569 25 22 25H4C2.34315 25 1 23.6569 1 22V4Z" stroke="#E0E0E0"/>
</svg>