<svg xmlns:dc="http://purl.org/dc/elements/1.1/" xmlns:cc="http://creativecommons.org/ns#" xmlns:rdf="http://www.w3.org/1999/02/22-rdf-syntax-ns#" xmlns:svg="http://www.w3.org/2000/svg" xmlns="http://www.w3.org/2000/svg" viewBox="0 0 180 180"><metadata><rdf:RDF><cc:Work><dc:format>image/svg+xml</dc:format><dc:type rdf:resource="http://purl.org/dc/dcmitype/StillImage"/><dc:title>Bottts</dc:title><dc:creator><cc:Agent><dc:title>Pablo Stanley</dc:title></cc:Agent></dc:creator><dc:source>https://bottts.com/</dc:source><cc:license rdf:resource="https://bottts.com/"/><dc:contributor><cc:Agent><dc:title>Florian Körner</dc:title></cc:Agent></dc:contributor></cc:Work></rdf:RDF></metadata><mask id="avatarsRadiusMask"><rect width="180" height="180" rx="0" ry="0" x="0" y="0" fill="#fff"/></mask><g mask="url(#avatarsRadiusMask)"><g transform="translate(0, 66)"><g opacity="0.9"><path id="Cable" d="M38 12C35.046 23.6966 18.0959 18.6663 14.6313 30.009C11.1668 41.3518 22.6565 50 32.1552 50" stroke="#2A3544" stroke-width="6"/><path id="Cable_2" d="M150 55C158.394 58.4864 170.102 47.4063 166 38.5C161.898 29.5936 150 31.8056 150 19.195" stroke="#2A3544" stroke-width="4"/></g><path fill-rule="evenodd" clip-rule="evenodd" d="M138 6C136.895 6 136 6.89543 136 8V22C136 23.1046 136.895 24 138 24H157C158.105 24 159 23.1046 159 22V8C159 6.89543 158.105 6 157 6H138ZM21 37C21 35.8954 21.8954 35 23 35H35C36.1046 35 37 35.8954 37 37V55C37 56.1046 36.1046 57 35 57H23C21.8954 57 21 56.1046 21 55V37ZM136 44C136 42.8954 136.895 42 138 42H157C158.105 42 159 42.8954 159 44V62C159 63.1046 158.105 64 157 64H138C136.895 64 136 63.1046 136 62V44Z" fill="#273951"/><mask id="sidesCables01Mask0" mask-type="alpha" maskUnits="userSpaceOnUse" x="21" y="6" width="138" height="58"><path fill-rule="evenodd" clip-rule="evenodd" d="M138 6C136.895 6 136 6.89543 136 8V22C136 23.1046 136.895 24 138 24H157C158.105 24 159 23.1046 159 22V8C159 6.89543 158.105 6 157 6H138ZM21 37C21 35.8954 21.8954 35 23 35H35C36.1046 35 37 35.8954 37 37V55C37 56.1046 36.1046 57 35 57H23C21.8954 57 21 56.1046 21 55V37ZM136 44C136 42.8954 136.895 42 138 42H157C158.105 42 159 42.8954 159 44V62C159 63.1046 158.105 64 157 64H138C136.895 64 136 63.1046 136 62V44Z" fill="white"/></mask><g mask="url(#sidesCables01Mask0)"><rect width="180" height="76" fill="#7E57C2"/></g></g><g transform="translate(41, 0)"><path fill-rule="evenodd" clip-rule="evenodd" d="M43.7993 28.3969C35.9888 20.5865 35.9888 7.92316 43.7993 0.112671L57.2343 13.5477L63.6874 7.09463C62.7814 5.56072 62.9874 3.55192 64.3054 2.23399C65.8675 0.671894 68.4001 0.671894 69.9622 2.23399C71.5243 3.79609 71.5243 6.32875 69.9622 7.89085C68.6443 9.20878 66.6355 9.41478 65.1016 8.50884L58.6485 14.9619L72.0835 28.3969C66.6332 33.8472 58.8199 35.4942 51.9414 33.3379V52.1127H47.9414V31.581C46.4606 30.7252 45.0661 29.6638 43.7993 28.3969Z" fill="#E1E6E8"/><mask id="topRadarMask0" mask-type="alpha" maskUnits="userSpaceOnUse" x="37" y="0" width="36" height="53"><path fill-rule="evenodd" clip-rule="evenodd" d="M43.7993 28.3969C35.9888 20.5865 35.9888 7.92316 43.7993 0.112671L57.2343 13.5477L63.6874 7.09463C62.7814 5.56072 62.9874 3.55192 64.3054 2.23399C65.8675 0.671894 68.4001 0.671894 69.9622 2.23399C71.5243 3.79609 71.5243 6.32875 69.9622 7.89085C68.6443 9.20878 66.6355 9.41478 65.1016 8.50884L58.6485 14.9619L72.0835 28.3969C66.6332 33.8472 58.8199 35.4942 51.9414 33.3379V52.1127H47.9414V31.581C46.4606 30.7252 45.0661 29.6638 43.7993 28.3969Z" fill="white"/></mask><g mask="url(#topRadarMask0)"><rect width="100" height="52" fill="#7E57C2"/><path fill-rule="evenodd" clip-rule="evenodd" d="M43.7988 0.112671C35.9883 7.92316 35.9883 20.5865 43.7988 28.3969C51.6093 36.2074 64.2726 36.2074 72.0831 28.3969" fill="white" fill-opacity="0.2"/><path fill-rule="evenodd" clip-rule="evenodd" d="M64.3054 7.89092C65.8675 9.45302 68.4001 9.45302 69.9622 7.89092C71.5243 6.32882 71.5243 3.79616 69.9622 2.23407C68.4001 0.67197 65.8675 0.67197 64.3054 2.23407C62.7433 3.79616 62.7433 6.32882 64.3054 7.89092Z" fill="white" fill-opacity="0.8"/></g></g><g transform="translate(25, 44)"><rect width="130" height="120" rx="18" fill="#0076DE"/><mask id="faceSquare01Mask0" mask-type="alpha" maskUnits="userSpaceOnUse" x="0" y="0" width="130" height="120"><rect width="130" height="120" rx="18" fill="white"/></mask><g mask="url(#faceSquare01Mask0)"><rect x="-2" y="-2" width="134" height="124" fill="#5E35B1"/></g></g><g transform="translate(52, 124)"><rect x="28" y="10" width="6" height="14" rx="2" fill="black" fill-opacity="0.6"/><rect x="14" y="10" width="6" height="14" rx="2" fill="black" fill-opacity="0.6"/><rect x="42" y="10" width="6" height="14" rx="2" fill="black" fill-opacity="0.6"/><rect x="56" y="10" width="6" height="14" rx="2" fill="black" fill-opacity="0.6"/></g><g transform="translate(38, 76)"><path fill-rule="evenodd" clip-rule="evenodd" d="M52 48C65.2548 48 76 37.2548 76 24C76 10.7452 65.2548 0 52 0C38.7452 0 28 10.7452 28 24C28 37.2548 38.7452 48 52 48Z" fill="white" fill-opacity="0.4"/><path fill-rule="evenodd" clip-rule="evenodd" d="M52 44C63.0457 44 72 35.0457 72 24C72 12.9543 63.0457 4 52 4C40.9543 4 32 12.9543 32 24C32 35.0457 40.9543 44 52 44Z" fill="black" fill-opacity="0.8"/><path d="M64.5726 15.8153C64.8743 16.2779 65.4939 16.4082 65.9565 16.1064C66.419 15.8046 66.5494 15.185 66.2476 14.7225L64.5726 15.8153ZM61.5815 9.95547C61.1256 9.64384 60.5033 9.76084 60.1917 10.2168C59.88 10.6728 59.997 11.295 60.453 11.6067L61.5815 9.95547ZM56.3568 9.64222C56.8854 9.80237 57.4437 9.50373 57.6039 8.97518C57.764 8.44663 57.4654 7.88832 56.9368 7.72816L56.3568 9.64222ZM45.7206 8.19769C45.2074 8.40179 44.9569 8.98326 45.161 9.49645C45.3651 10.0096 45.9465 10.2602 46.4597 10.0561L45.7206 8.19769ZM41.7603 13.0388C42.1638 12.6617 42.1852 12.0289 41.8081 11.6254C41.431 11.2219 40.7981 11.2005 40.3947 11.5776L41.7603 13.0388ZM36.4567 17.1052C36.2325 17.6099 36.4599 18.2008 36.9646 18.425C37.4694 18.6492 38.0603 18.4218 38.2845 17.9171L36.4567 17.1052ZM66.2476 14.7225C65.0212 12.8427 63.433 11.2208 61.5815 9.95547L60.453 11.6067C62.0875 12.7238 63.49 14.1559 64.5726 15.8153L66.2476 14.7225ZM56.9368 7.72816C55.3733 7.25438 53.7155 7 52.0001 7V9C53.5169 9 54.9793 9.2248 56.3568 9.64222L56.9368 7.72816ZM52.0001 7C49.784 7 47.6646 7.42456 45.7206 8.19769L46.4597 10.0561C48.1724 9.37496 50.0413 9 52.0001 9V7ZM40.3947 11.5776C38.7378 13.1261 37.3906 15.0029 36.4567 17.1052L38.2845 17.9171C39.108 16.0633 40.2968 14.4066 41.7603 13.0388L40.3947 11.5776Z" fill="white" fill-opacity="0.9"/><path fill-rule="evenodd" clip-rule="evenodd" d="M52 34C57.5228 34 62 29.5228 62 24C62 18.4772 57.5228 14 52 14C46.4772 14 42 18.4772 42 24C42 29.5228 46.4772 34 52 34Z" fill="#C6080C"/><path fill-rule="evenodd" clip-rule="evenodd" d="M52 28C54.2091 28 56 26.2091 56 24C56 21.7909 54.2091 20 52 20C49.7909 20 48 21.7909 48 24C48 26.2091 49.7909 28 52 28Z" fill="#EE9337"/><path fill-rule="evenodd" clip-rule="evenodd" d="M52 25C52.5523 25 53 24.5523 53 24C53 23.4477 52.5523 23 52 23C51.4477 23 51 23.4477 51 24C51 24.5523 51.4477 25 52 25Z" fill="#F5F94F"/></g></g></svg>