<svg xmlns:dc="http://purl.org/dc/elements/1.1/" xmlns:cc="http://creativecommons.org/ns#" xmlns:rdf="http://www.w3.org/1999/02/22-rdf-syntax-ns#" xmlns:svg="http://www.w3.org/2000/svg" xmlns="http://www.w3.org/2000/svg" viewBox="0 0 180 180"><metadata><rdf:RDF><cc:Work><dc:format>image/svg+xml</dc:format><dc:type rdf:resource="http://purl.org/dc/dcmitype/StillImage"/><dc:title>Bottts</dc:title><dc:creator><cc:Agent><dc:title>Pablo Stanley</dc:title></cc:Agent></dc:creator><dc:source>https://bottts.com/</dc:source><cc:license rdf:resource="https://bottts.com/"/><dc:contributor><cc:Agent><dc:title>Florian Körner</dc:title></cc:Agent></dc:contributor></cc:Work></rdf:RDF></metadata><mask id="avatarsRadiusMask"><rect width="180" height="180" rx="0" ry="0" x="0" y="0" fill="#fff"/></mask><g mask="url(#avatarsRadiusMask)"><g transform="translate(0, 66)"><path fill-rule="evenodd" clip-rule="evenodd" d="M13 11H11V31H12.4C10.1598 31 9.03969 31 8.18404 31.436C7.43139 31.8195 6.81947 32.4314 6.43597 33.184C6 34.0397 6 35.1598 6 37.4V38.6C6 40.8402 6 41.9603 6.43597 42.816C6.81947 43.5686 7.43139 44.1805 8.18404 44.564C9.03969 45 10.1598 45 12.4 45H18V55.6C18 57.8402 18 58.9603 18.436 59.816C18.8195 60.5686 19.4314 61.1805 20.184 61.564C21.0397 62 22.1598 62 24.4 62H47.6C49.8402 62 50.9603 62 51.816 61.564C52.5686 61.1805 53.1805 60.5686 53.564 59.816C54 58.9603 54 57.8402 54 55.6V20.4C54 18.1598 54 17.0397 53.564 16.184C53.1805 15.4314 52.5686 14.8195 51.816 14.436C50.9603 14 49.8402 14 47.6 14H24.4C22.1598 14 21.0397 14 20.184 14.436C19.4314 14.8195 18.8195 15.4314 18.436 16.184C18 17.0397 18 18.1598 18 20.4V31H13V11ZM126 34.4C126 32.1598 126 31.0397 126.436 30.184C126.819 29.4314 127.431 28.8195 128.184 28.436C129.04 28 130.16 28 132.4 28H155.6C157.84 28 158.96 28 159.816 28.436C160.569 28.8195 161.181 29.4314 161.564 30.184C162 31.0397 162 32.1598 162 34.4V45.6C162 47.8402 162 48.9603 161.564 49.816C161.181 50.5686 160.569 51.1805 159.816 51.564C158.96 52 157.84 52 155.6 52H132.4C130.16 52 129.04 52 128.184 51.564C127.431 51.1805 126.819 50.5686 126.436 49.816C126 48.9603 126 47.8402 126 45.6V34.4Z" fill="#0076DE"/><mask id="sidesAntenna01Mask0" mask-type="alpha" maskUnits="userSpaceOnUse" x="6" y="11" width="156" height="51"><path fill-rule="evenodd" clip-rule="evenodd" d="M13 11H11V31H12.4C10.1598 31 9.03969 31 8.18404 31.436C7.43139 31.8195 6.81947 32.4314 6.43597 33.184C6 34.0397 6 35.1598 6 37.4V38.6C6 40.8402 6 41.9603 6.43597 42.816C6.81947 43.5686 7.43139 44.1805 8.18404 44.564C9.03969 45 10.1598 45 12.4 45H18V55.6C18 57.8402 18 58.9603 18.436 59.816C18.8195 60.5686 19.4314 61.1805 20.184 61.564C21.0397 62 22.1598 62 24.4 62H47.6C49.8402 62 50.9603 62 51.816 61.564C52.5686 61.1805 53.1805 60.5686 53.564 59.816C54 58.9603 54 57.8402 54 55.6V20.4C54 18.1598 54 17.0397 53.564 16.184C53.1805 15.4314 52.5686 14.8195 51.816 14.436C50.9603 14 49.8402 14 47.6 14H24.4C22.1598 14 21.0397 14 20.184 14.436C19.4314 14.8195 18.8195 15.4314 18.436 16.184C18 17.0397 18 18.1598 18 20.4V31H13V11ZM126 34.4C126 32.1598 126 31.0397 126.436 30.184C126.819 29.4314 127.431 28.8195 128.184 28.436C129.04 28 130.16 28 132.4 28H155.6C157.84 28 158.96 28 159.816 28.436C160.569 28.8195 161.181 29.4314 161.564 30.184C162 31.0397 162 32.1598 162 34.4V45.6C162 47.8402 162 48.9603 161.564 49.816C161.181 50.5686 160.569 51.1805 159.816 51.564C158.96 52 157.84 52 155.6 52H132.4C130.16 52 129.04 52 128.184 51.564C127.431 51.1805 126.819 50.5686 126.436 49.816C126 48.9603 126 47.8402 126 45.6V34.4Z" fill="white"/></mask><g mask="url(#sidesAntenna01Mask0)"><rect width="180" height="76" fill="#29B6F6"/><rect y="38" width="180" height="38" fill="black" fill-opacity="0.1"/></g><rect x="11" y="11" width="2" height="20" fill="white" fill-opacity="0.4"/><path fill-rule="evenodd" clip-rule="evenodd" d="M12 12C14.2091 12 16 10.2091 16 8C16 5.79086 14.2091 4 12 4C9.79086 4 8 5.79086 8 8C8 10.2091 9.79086 12 12 12Z" fill="#FFEA8F"/><path fill-rule="evenodd" clip-rule="evenodd" d="M13 9C14.1046 9 15 8.10457 15 7C15 5.89543 14.1046 5 13 5C11.8954 5 11 5.89543 11 7C11 8.10457 11.8954 9 13 9Z" fill="white"/></g><g transform="translate(41, 0)"><g filter="url(#topGlowingBulb02Filter0)"><path fill-rule="evenodd" clip-rule="evenodd" d="M30 33C30 21.9543 38.9543 13 50 13V13C61.0457 13 70 21.9543 70 33V44H30V33Z" fill="white" fill-opacity="0.3"/></g><path fill-rule="evenodd" clip-rule="evenodd" d="M50 36C52.2091 36 54 35.028 54 31.7143C54 28.4006 52.2091 24 50 24C47.7909 24 46 28.4006 46 31.7143C46 35.028 47.7909 36 50 36Z" fill="white" fill-opacity="0.6"/><path d="M50 14.5C49.4477 14.5 49 14.9477 49 15.5C49 16.0523 49.4477 16.5 50 16.5V14.5ZM61.6941 21.6875C62.0649 22.0968 62.6973 22.1281 63.1066 21.7573C63.5159 21.3865 63.5471 20.7541 63.1763 20.3448L61.6941 21.6875ZM65.7595 24.0473C65.5035 23.5579 64.8993 23.3686 64.4099 23.6246C63.9205 23.8806 63.7313 24.4848 63.9873 24.9742L65.7595 24.0473ZM65.4248 28.9559C65.5404 29.4959 66.0719 29.84 66.6119 29.7244C67.152 29.6088 67.4961 29.0773 67.3805 28.5373L65.4248 28.9559ZM50 16.5C54.6375 16.5 58.8065 18.4999 61.6941 21.6875L63.1763 20.3448C59.9256 16.7563 55.2256 14.5 50 14.5V16.5ZM63.9873 24.9742C64.6357 26.2139 65.1239 27.5501 65.4248 28.9559L67.3805 28.5373C67.0411 26.9518 66.4904 25.4448 65.7595 24.0473L63.9873 24.9742Z" fill="white"/><rect x="20" y="36" width="60" height="16" rx="1" fill="#29B6F6"/><defs><filter id="topGlowingBulb02Filter0" x="22" y="5" width="56" height="47" filterUnits="userSpaceOnUse" color-interpolation-filters="sRGB"><feFlood flood-opacity="0" result="BackgroundImageFix"/><feColorMatrix in="SourceAlpha" type="matrix" values="0 0 0 0 0 0 0 0 0 0 0 0 0 0 0 0 0 0 127 0"/><feOffset/><feGaussianBlur stdDeviation="4"/><feColorMatrix type="matrix" values="0 0 0 0 1 0 0 0 0 1 0 0 0 0 1 0 0 0 0.5 0"/><feBlend mode="normal" in2="BackgroundImageFix" result="effect1_dropShadow"/><feBlend mode="normal" in="SourceGraphic" in2="effect1_dropShadow" result="shape"/><feColorMatrix in="SourceAlpha" type="matrix" values="0 0 0 0 0 0 0 0 0 0 0 0 0 0 0 0 0 0 127 0" result="hardAlpha"/><feOffset/><feGaussianBlur stdDeviation="2"/><feComposite in2="hardAlpha" operator="arithmetic" k2="-1" k3="1"/><feColorMatrix type="matrix" values="0 0 0 0 1 0 0 0 0 1 0 0 0 0 1 0 0 0 0.5 0"/><feBlend mode="normal" in2="shape" result="effect2_innerShadow"/></filter></defs></g><g transform="translate(25, 44)"><path fill-rule="evenodd" clip-rule="evenodd" d="M0 31C0 31.0205 0.0141049 30.8164 0 30C0.183375 29.5235 0.402009 28.5029 1 27C1.82671 23.944 3.7804 20.4435 7 17C16.6944 6.60017 35.1724 0 65 0C94.8276 0 113.306 6.60036 123 17C126.22 20.4435 128.173 23.944 129 27C129.598 28.5029 129.817 29.5236 130 30C129.986 30.8164 130 31.0205 130 31V70C130 69.8964 129.972 70.5012 130 71C129.739 73.1171 129.471 75.0149 129 77C127.814 82.9912 125.606 88.911 122 94C112.283 110.337 94.2553 120 65 120C35.7448 120 17.7164 110.338 8 94C4.39414 88.9108 2.1865 82.9912 1 77C0.529043 75.0149 0.261028 73.1171 0 71C0.0282767 70.5466 6.49997e-05 69.6771 0 70V31Z" fill="#E1E6E8"/><mask id="faceRound02Mask0" mask-type="alpha" maskUnits="userSpaceOnUse" x="0" y="0" width="130" height="120"><path fill-rule="evenodd" clip-rule="evenodd" d="M0 31C0 31.0205 0.0141049 30.8164 0 30C0.183375 29.5235 0.402009 28.5029 1 27C1.82671 23.944 3.7804 20.4435 7 17C16.6944 6.60017 35.1724 0 65 0C94.8276 0 113.306 6.60036 123 17C126.22 20.4435 128.173 23.944 129 27C129.598 28.5029 129.817 29.5236 130 30C129.986 30.8164 130 31.0205 130 31V70C130 69.8964 129.972 70.5012 130 71C129.739 73.1171 129.471 75.0149 129 77C127.814 82.9912 125.606 88.911 122 94C112.283 110.337 94.2553 120 65 120C35.7448 120 17.7164 110.338 8 94C4.39414 88.9108 2.1865 82.9912 1 77C0.529043 75.0149 0.261028 73.1171 0 71C0.0282767 70.5466 6.49997e-05 69.6771 0 70V31Z" fill="white"/></mask><g mask="url(#faceRound02Mask0)"><rect x="-4" y="-2" width="138" height="124" fill="#039BE5"/></g></g><g transform="translate(52, 124)"><rect x="4" y="5" width="68" height="22" rx="5" fill="black" fill-opacity="0.2"/><rect x="8" y="9" width="60" height="14" rx="2" fill="black" fill-opacity="0.6"/><path fill-rule="evenodd" clip-rule="evenodd" d="M20 17L26 9H14L20 17Z" fill="#E1E6E8"/><path fill-rule="evenodd" clip-rule="evenodd" d="M32 17L38 9H26L32 17Z" fill="#E1E6E8"/><path fill-rule="evenodd" clip-rule="evenodd" d="M44 17L50 9H38L44 17Z" fill="#E1E6E8"/><path fill-rule="evenodd" clip-rule="evenodd" d="M56 17L62 9H50L56 17Z" fill="#E1E6E8"/></g><g transform="translate(38, 76)"><rect y="11" width="104" height="34" rx="17" fill="black" fill-opacity="0.8"/><path fill-rule="evenodd" clip-rule="evenodd" d="M29 41C36.1797 41 42 35.1797 42 28C42 20.8203 36.1797 15 29 15C21.8203 15 16 20.8203 16 28C16 35.1797 21.8203 41 29 41Z" fill="#F1EEDA"/><path fill-rule="evenodd" clip-rule="evenodd" d="M75 41C82.1797 41 88 35.1797 88 28C88 20.8203 82.1797 15 75 15C67.8203 15 62 20.8203 62 28C62 35.1797 67.8203 41 75 41Z" fill="#F1EEDA"/><rect x="24" y="23" width="10" height="10" rx="2" fill="black" fill-opacity="0.8"/><rect x="70" y="23" width="10" height="10" rx="2" fill="black" fill-opacity="0.8"/></g></g></svg>