<svg xmlns:dc="http://purl.org/dc/elements/1.1/" xmlns:cc="http://creativecommons.org/ns#" xmlns:rdf="http://www.w3.org/1999/02/22-rdf-syntax-ns#" xmlns:svg="http://www.w3.org/2000/svg" xmlns="http://www.w3.org/2000/svg" viewBox="0 0 180 180"><metadata><rdf:RDF><cc:Work><dc:format>image/svg+xml</dc:format><dc:type rdf:resource="http://purl.org/dc/dcmitype/StillImage"/><dc:title>Bottts</dc:title><dc:creator><cc:Agent><dc:title>Pablo Stanley</dc:title></cc:Agent></dc:creator><dc:source>https://bottts.com/</dc:source><cc:license rdf:resource="https://bottts.com/"/><dc:contributor><cc:Agent><dc:title>Florian Körner</dc:title></cc:Agent></dc:contributor></cc:Work></rdf:RDF></metadata><mask id="avatarsRadiusMask"><rect width="180" height="180" rx="0" ry="0" x="0" y="0" fill="#fff"/></mask><g mask="url(#avatarsRadiusMask)"><g transform="translate(0, 66)"><g opacity="0.9"><path fill-rule="evenodd" clip-rule="evenodd" d="M32.5 41C41.6127 41 49 32.9411 49 23C49 13.0589 41.6127 5 32.5 5C23.3873 5 16 13.0589 16 23C16 32.9411 23.3873 41 32.5 41Z" stroke="#2A3544" stroke-width="6"/><path d="M29.5152 36.7649C22.1017 41.0451 12.5101 38.3112 8.0918 30.6585" stroke="#2A3544" stroke-width="4"/><path fill-rule="evenodd" clip-rule="evenodd" d="M28 67C37.3888 67 45 60.5081 45 52.5C45 44.4919 37.3888 38 28 38C18.6112 38 12 44.4919 12 52.5C12 60.5081 18.6112 67 28 67Z" stroke="#2A3544" stroke-width="4"/><path d="M168.606 60.4234C164.326 53.0099 154.653 50.5817 147 55" stroke="#2A3544" stroke-width="4"/><path fill-rule="evenodd" clip-rule="evenodd" d="M148 38C157.389 38 165 31.0604 165 22.5C165 13.9396 157.389 7 148 7C138.611 7 132 13.9396 132 22.5C132 31.0604 138.611 38 148 38Z" stroke="#2A3544" stroke-width="6"/></g><path fill-rule="evenodd" clip-rule="evenodd" d="M145 0C143.895 0 143 0.89543 143 2V20C143 21.1046 143.895 22 145 22H157C158.105 22 159 21.1046 159 20V2C159 0.895431 158.105 0 157 0H145ZM23 27C21.8954 27 21 27.8954 21 29V47C21 48.1046 21.8954 49 23 49H35C36.1046 49 37 48.1046 37 47V29C37 27.8954 36.1046 27 35 27H23ZM24 60C22.8954 60 22 60.8954 22 62V70C22 71.1046 22.8954 72 24 72H36C37.1046 72 38 71.1046 38 70V62C38 60.8954 37.1046 60 36 60H24ZM143 44C143 42.8954 143.895 42 145 42H157C158.105 42 159 42.8954 159 44V62C159 63.1046 158.105 64 157 64H145C143.895 64 143 63.1046 143 62V44Z" fill="#273951"/><mask id="sidesCables01Mask0" mask-type="alpha" maskUnits="userSpaceOnUse" x="21" y="0" width="138" height="72"><path fill-rule="evenodd" clip-rule="evenodd" d="M145 0C143.895 0 143 0.89543 143 2V20C143 21.1046 143.895 22 145 22H157C158.105 22 159 21.1046 159 20V2C159 0.895431 158.105 0 157 0H145ZM23 27C21.8954 27 21 27.8954 21 29V47C21 48.1046 21.8954 49 23 49H35C36.1046 49 37 48.1046 37 47V29C37 27.8954 36.1046 27 35 27H23ZM24 60C22.8954 60 22 60.8954 22 62V70C22 71.1046 22.8954 72 24 72H36C37.1046 72 38 71.1046 38 70V62C38 60.8954 37.1046 60 36 60H24ZM143 44C143 42.8954 143.895 42 145 42H157C158.105 42 159 42.8954 159 44V62C159 63.1046 158.105 64 157 64H145C143.895 64 143 63.1046 143 62V44Z" fill="white"/></mask><g mask="url(#sidesCables01Mask0)"><rect width="180" height="76" fill="#FFA726"/></g></g><g transform="translate(41, 0)"><g filter="url(#topGlowingBulb02Filter0)"><path fill-rule="evenodd" clip-rule="evenodd" d="M30 33C30 21.9543 38.9543 13 50 13V13C61.0457 13 70 21.9543 70 33V44H30V33Z" fill="white" fill-opacity="0.3"/></g><path fill-rule="evenodd" clip-rule="evenodd" d="M50 36C52.2091 36 54 35.028 54 31.7143C54 28.4006 52.2091 24 50 24C47.7909 24 46 28.4006 46 31.7143C46 35.028 47.7909 36 50 36Z" fill="white" fill-opacity="0.6"/><path d="M50 14.5C49.4477 14.5 49 14.9477 49 15.5C49 16.0523 49.4477 16.5 50 16.5V14.5ZM61.6941 21.6875C62.0649 22.0968 62.6973 22.1281 63.1066 21.7573C63.5159 21.3865 63.5471 20.7541 63.1763 20.3448L61.6941 21.6875ZM65.7595 24.0473C65.5035 23.5579 64.8993 23.3686 64.4099 23.6246C63.9205 23.8806 63.7313 24.4848 63.9873 24.9742L65.7595 24.0473ZM65.4248 28.9559C65.5404 29.4959 66.0719 29.84 66.6119 29.7244C67.152 29.6088 67.4961 29.0773 67.3805 28.5373L65.4248 28.9559ZM50 16.5C54.6375 16.5 58.8065 18.4999 61.6941 21.6875L63.1763 20.3448C59.9256 16.7563 55.2256 14.5 50 14.5V16.5ZM63.9873 24.9742C64.6357 26.2139 65.1239 27.5501 65.4248 28.9559L67.3805 28.5373C67.0411 26.9518 66.4904 25.4448 65.7595 24.0473L63.9873 24.9742Z" fill="white"/><rect x="20" y="36" width="60" height="16" rx="1" fill="#FFA726"/><defs><filter id="topGlowingBulb02Filter0" x="22" y="5" width="56" height="47" filterUnits="userSpaceOnUse" color-interpolation-filters="sRGB"><feFlood flood-opacity="0" result="BackgroundImageFix"/><feColorMatrix in="SourceAlpha" type="matrix" values="0 0 0 0 0 0 0 0 0 0 0 0 0 0 0 0 0 0 127 0"/><feOffset/><feGaussianBlur stdDeviation="4"/><feColorMatrix type="matrix" values="0 0 0 0 1 0 0 0 0 1 0 0 0 0 1 0 0 0 0.5 0"/><feBlend mode="normal" in2="BackgroundImageFix" result="effect1_dropShadow"/><feBlend mode="normal" in="SourceGraphic" in2="effect1_dropShadow" result="shape"/><feColorMatrix in="SourceAlpha" type="matrix" values="0 0 0 0 0 0 0 0 0 0 0 0 0 0 0 0 0 0 127 0" result="hardAlpha"/><feOffset/><feGaussianBlur stdDeviation="2"/><feComposite in2="hardAlpha" operator="arithmetic" k2="-1" k3="1"/><feColorMatrix type="matrix" values="0 0 0 0 1 0 0 0 0 1 0 0 0 0 1 0 0 0 0.5 0"/><feBlend mode="normal" in2="shape" result="effect2_innerShadow"/></filter></defs></g><g transform="translate(25, 44)"><rect width="130" height="120" rx="18" fill="#0076DE"/><mask id="faceSquare01Mask0" mask-type="alpha" maskUnits="userSpaceOnUse" x="0" y="0" width="130" height="120"><rect width="130" height="120" rx="18" fill="white"/></mask><g mask="url(#faceSquare01Mask0)"><rect x="-2" y="-2" width="134" height="124" fill="#FB8C00"/></g></g><g transform="translate(52, 124)"><rect x="24" y="6" width="27" height="8" rx="4" fill="black" fill-opacity="0.8"/></g><g transform="translate(38, 76)"><path d="M29.2691 9.67983C26.7216 9.81334 24.305 11.9225 23.0195 13.8332C21.5357 12.0676 18.9175 10.2223 16.3701 10.3558C10.8883 10.6431 7.51531 14.1586 7.74073 18.4598C8.0406 24.1816 12.6244 27.3464 17.4365 30.7046C19.1523 31.8531 22.441 34.8494 22.8627 35.5214C23.2845 36.1935 25.0034 36.1278 25.4425 35.3862C25.8817 34.6446 28.7463 31.3502 30.3355 30.0286C34.7674 26.1859 38.9981 22.5592 38.6982 16.8374C38.4728 12.5362 34.7509 9.39254 29.2691 9.67983Z" fill="#FF5353" fill-opacity="0.8"/><path d="M87.6299 10.3558C85.0825 10.2223 82.4586 12.0673 80.9805 13.8332C79.6893 11.9222 77.2784 9.81331 74.7309 9.67981C69.2491 9.39252 65.5272 12.5361 65.3017 16.8374C65.0019 22.5591 69.2297 26.1857 73.6645 30.0286C75.2508 31.3501 78.2083 34.6738 78.5575 35.3862C78.9067 36.0987 80.623 36.2131 81.1373 35.5214C81.6515 34.8298 84.8449 31.8529 86.5635 30.7046C91.3728 27.3462 95.9594 24.1816 96.2593 18.4598C96.4847 14.1586 93.1117 10.6431 87.6299 10.3558Z" fill="#FF5353" fill-opacity="0.8"/></g></g></svg>