<svg xmlns:dc="http://purl.org/dc/elements/1.1/" xmlns:cc="http://creativecommons.org/ns#" xmlns:rdf="http://www.w3.org/1999/02/22-rdf-syntax-ns#" xmlns:svg="http://www.w3.org/2000/svg" xmlns="http://www.w3.org/2000/svg" viewBox="0 0 180 180"><metadata><rdf:RDF><cc:Work><dc:format>image/svg+xml</dc:format><dc:type rdf:resource="http://purl.org/dc/dcmitype/StillImage"/><dc:title>Bottts</dc:title><dc:creator><cc:Agent><dc:title>Pablo Stanley</dc:title></cc:Agent></dc:creator><dc:source>https://bottts.com/</dc:source><cc:license rdf:resource="https://bottts.com/"/><dc:contributor><cc:Agent><dc:title>Florian Körner</dc:title></cc:Agent></dc:contributor></cc:Work></rdf:RDF></metadata><mask id="avatarsRadiusMask"><rect width="180" height="180" rx="0" ry="0" x="0" y="0" fill="#fff"/></mask><g mask="url(#avatarsRadiusMask)"><g transform="translate(0, 66)"><path fill-rule="evenodd" clip-rule="evenodd" d="M13 11H11V31H12.4C10.1598 31 9.03969 31 8.18404 31.436C7.43139 31.8195 6.81947 32.4314 6.43597 33.184C6 34.0397 6 35.1598 6 37.4V38.6C6 40.8402 6 41.9603 6.43597 42.816C6.81947 43.5686 7.43139 44.1805 8.18404 44.564C9.03969 45 10.1598 45 12.4 45H18V55.6C18 57.8402 18 58.9603 18.436 59.816C18.8195 60.5686 19.4314 61.1805 20.184 61.564C21.0397 62 22.1598 62 24.4 62H47.6C49.8402 62 50.9603 62 51.816 61.564C52.5686 61.1805 53.1805 60.5686 53.564 59.816C54 58.9603 54 57.8402 54 55.6V20.4C54 18.1598 54 17.0397 53.564 16.184C53.1805 15.4314 52.5686 14.8195 51.816 14.436C50.9603 14 49.8402 14 47.6 14H24.4C22.1598 14 21.0397 14 20.184 14.436C19.4314 14.8195 18.8195 15.4314 18.436 16.184C18 17.0397 18 18.1598 18 20.4V31H13V11ZM126 34.4C126 32.1598 126 31.0397 126.436 30.184C126.819 29.4314 127.431 28.8195 128.184 28.436C129.04 28 130.16 28 132.4 28H155.6C157.84 28 158.96 28 159.816 28.436C160.569 28.8195 161.181 29.4314 161.564 30.184C162 31.0397 162 32.1598 162 34.4V45.6C162 47.8402 162 48.9603 161.564 49.816C161.181 50.5686 160.569 51.1805 159.816 51.564C158.96 52 157.84 52 155.6 52H132.4C130.16 52 129.04 52 128.184 51.564C127.431 51.1805 126.819 50.5686 126.436 49.816C126 48.9603 126 47.8402 126 45.6V34.4Z" fill="#0076DE"/><mask id="sidesAntenna01Mask0" mask-type="alpha" maskUnits="userSpaceOnUse" x="6" y="11" width="156" height="51"><path fill-rule="evenodd" clip-rule="evenodd" d="M13 11H11V31H12.4C10.1598 31 9.03969 31 8.18404 31.436C7.43139 31.8195 6.81947 32.4314 6.43597 33.184C6 34.0397 6 35.1598 6 37.4V38.6C6 40.8402 6 41.9603 6.43597 42.816C6.81947 43.5686 7.43139 44.1805 8.18404 44.564C9.03969 45 10.1598 45 12.4 45H18V55.6C18 57.8402 18 58.9603 18.436 59.816C18.8195 60.5686 19.4314 61.1805 20.184 61.564C21.0397 62 22.1598 62 24.4 62H47.6C49.8402 62 50.9603 62 51.816 61.564C52.5686 61.1805 53.1805 60.5686 53.564 59.816C54 58.9603 54 57.8402 54 55.6V20.4C54 18.1598 54 17.0397 53.564 16.184C53.1805 15.4314 52.5686 14.8195 51.816 14.436C50.9603 14 49.8402 14 47.6 14H24.4C22.1598 14 21.0397 14 20.184 14.436C19.4314 14.8195 18.8195 15.4314 18.436 16.184C18 17.0397 18 18.1598 18 20.4V31H13V11ZM126 34.4C126 32.1598 126 31.0397 126.436 30.184C126.819 29.4314 127.431 28.8195 128.184 28.436C129.04 28 130.16 28 132.4 28H155.6C157.84 28 158.96 28 159.816 28.436C160.569 28.8195 161.181 29.4314 161.564 30.184C162 31.0397 162 32.1598 162 34.4V45.6C162 47.8402 162 48.9603 161.564 49.816C161.181 50.5686 160.569 51.1805 159.816 51.564C158.96 52 157.84 52 155.6 52H132.4C130.16 52 129.04 52 128.184 51.564C127.431 51.1805 126.819 50.5686 126.436 49.816C126 48.9603 126 47.8402 126 45.6V34.4Z" fill="white"/></mask><g mask="url(#sidesAntenna01Mask0)"><rect width="180" height="76" fill="#29B6F6"/><rect y="38" width="180" height="38" fill="black" fill-opacity="0.1"/></g><rect x="11" y="11" width="2" height="20" fill="white" fill-opacity="0.4"/><path fill-rule="evenodd" clip-rule="evenodd" d="M12 12C14.2091 12 16 10.2091 16 8C16 5.79086 14.2091 4 12 4C9.79086 4 8 5.79086 8 8C8 10.2091 9.79086 12 12 12Z" fill="#FFEA8F"/><path fill-rule="evenodd" clip-rule="evenodd" d="M13 9C14.1046 9 15 8.10457 15 7C15 5.89543 14.1046 5 13 5C11.8954 5 11 5.89543 11 7C11 8.10457 11.8954 9 13 9Z" fill="white"/></g><g transform="translate(41, 0)"><path fill-rule="evenodd" clip-rule="evenodd" d="M43.7993 28.3969C35.9888 20.5865 35.9888 7.92316 43.7993 0.112671L57.2343 13.5477L63.6874 7.09463C62.7814 5.56072 62.9874 3.55192 64.3054 2.23399C65.8675 0.671894 68.4001 0.671894 69.9622 2.23399C71.5243 3.79609 71.5243 6.32875 69.9622 7.89085C68.6443 9.20878 66.6355 9.41478 65.1016 8.50884L58.6485 14.9619L72.0835 28.3969C66.6332 33.8472 58.8199 35.4942 51.9414 33.3379V52.1127H47.9414V31.581C46.4606 30.7252 45.0661 29.6638 43.7993 28.3969Z" fill="#E1E6E8"/><mask id="topRadarMask0" mask-type="alpha" maskUnits="userSpaceOnUse" x="37" y="0" width="36" height="53"><path fill-rule="evenodd" clip-rule="evenodd" d="M43.7993 28.3969C35.9888 20.5865 35.9888 7.92316 43.7993 0.112671L57.2343 13.5477L63.6874 7.09463C62.7814 5.56072 62.9874 3.55192 64.3054 2.23399C65.8675 0.671894 68.4001 0.671894 69.9622 2.23399C71.5243 3.79609 71.5243 6.32875 69.9622 7.89085C68.6443 9.20878 66.6355 9.41478 65.1016 8.50884L58.6485 14.9619L72.0835 28.3969C66.6332 33.8472 58.8199 35.4942 51.9414 33.3379V52.1127H47.9414V31.581C46.4606 30.7252 45.0661 29.6638 43.7993 28.3969Z" fill="white"/></mask><g mask="url(#topRadarMask0)"><rect width="100" height="52" fill="#29B6F6"/><path fill-rule="evenodd" clip-rule="evenodd" d="M43.7988 0.112671C35.9883 7.92316 35.9883 20.5865 43.7988 28.3969C51.6093 36.2074 64.2726 36.2074 72.0831 28.3969" fill="white" fill-opacity="0.2"/><path fill-rule="evenodd" clip-rule="evenodd" d="M64.3054 7.89092C65.8675 9.45302 68.4001 9.45302 69.9622 7.89092C71.5243 6.32882 71.5243 3.79616 69.9622 2.23407C68.4001 0.67197 65.8675 0.67197 64.3054 2.23407C62.7433 3.79616 62.7433 6.32882 64.3054 7.89092Z" fill="white" fill-opacity="0.8"/></g></g><g transform="translate(25, 44)"><path d="M0 12C0 5.37259 5.37258 0 12 0H118C124.627 0 130 5.37258 130 12V82C130 102.987 112.987 120 92 120H38C17.0132 120 0 102.987 0 82V12Z" fill="#0076DE"/><mask id="faceSquare01Mask0" mask-type="alpha" maskUnits="userSpaceOnUse" x="0" y="0" width="130" height="120"><path d="M0 12C0 5.37259 5.37258 0 12 0H118C124.627 0 130 5.37258 130 12V82C130 102.987 112.987 120 92 120H38C17.0132 120 0 102.987 0 82V12Z" fill="white"/></mask><g mask="url(#faceSquare01Mask0)"><rect x="-2" y="-2" width="134" height="124" fill="#039BE5"/></g></g><g transform="translate(52, 124)"><rect x="4" y="4" width="68" height="24" rx="5" fill="black" fill-opacity="0.2"/><rect x="8" y="8" width="60" height="16" rx="2" fill="black" fill-opacity="0.8"/><path d="M9 17H20L22 13L25 20L29 12L31 21L34 10L37 20L40 17H55L58 13L60 20L63 17H67" stroke="#4EFAC9" stroke-width="2" stroke-linecap="round" stroke-linejoin="round"/></g><g transform="translate(38, 76)"><path fill-rule="evenodd" clip-rule="evenodd" d="M24 36C27.3137 36 30 33.3137 30 30C30 26.6863 27.3137 24 24 24C20.6863 24 18 26.6863 18 30C18 33.3137 20.6863 36 24 36Z" fill="white"/><path fill-rule="evenodd" clip-rule="evenodd" d="M80 36C83.3137 36 86 33.3137 86 30C86 26.6863 83.3137 24 80 24C76.6863 24 74 26.6863 74 30C74 33.3137 76.6863 36 80 36Z" fill="white"/></g></g></svg>